# xmcd
#
# Track frame offsets: 
#        150
#        19008
#        37463
#        50775
#        65803
#        86378
#        102225
#        117920
#        132310
#        149593
#        162838
#        177363
#        196055
#
# Disc length: 2730 seconds
#
# Revision: 4
# Processed by: cddbd v1.5.2PL0 Copyright (c) Steve Scherf et al.
# Submitted via: ExactAudioCopy v0.99pb3
#
DISCID=c00aa80d
DTITLE=David Honeyboy Edwards - White Windows
DYEAR=1993
DGENRE=Blues
TTITLE0=West Helena Blues
TTITLE1=Don't Say I Don't Love You
TTITLE2=Build Myself A Cave
TTITLE3=Don't You Lie To Me
TTITLE4=61 Highway
TTITLE5=Drop Down Mama
TTITLE6=It's Been So Long Since I Laughed and Talked With You
TTITLE7=Shake 'em On Down
TTITLE8=Take A Walk With Me
TTITLE9=The War Is Over
TTITLE10=Roll and Tumble Blues
TTITLE11=Goin' Down Slow
TTITLE12=Lay My Burden Down
EXTD=
EXTT0=
EXTT1=
EXTT2=
EXTT3=
EXTT4=
EXTT5=
EXTT6=
EXTT7=
EXTT8=
EXTT9=
EXTT10=
EXTT11=
EXTT12=
PLAYORDER=
